<?xml version="1.0" standalone="no"?>
<!DOCTYPE svg PUBLIC "-//W3C//DTD SVG 20010904//EN"
 "http://www.w3.org/TR/2001/REC-SVG-20010904/DTD/svg10.dtd">
<svg version="1.0" xmlns="http://www.w3.org/2000/svg"
 width="896.000000pt" height="896.000000pt" viewBox="0 0 896.000000 896.000000"
 preserveAspectRatio="xMidYMid meet">
<metadata>
Created by potrace 1.14, written by Peter Selinger 2001-2017
</metadata>
<g transform="translate(0.000000,896.000000) scale(0.100000,-0.100000)"
fill="#000000" stroke="none">
<path d="M8045 8598 c4 -9 1 -19 -6 -24 -7 -4 -10 -3 -5 4 10 17 -28 19 -42 2
-8 -8 -11 -9 -7 -2 7 14 -11 17 -20 3 -6 -10 -37 -7 -57 5 -7 5 -8 3 -3 -6 6
-10 4 -12 -7 -7 -9 3 -21 0 -27 -6 -9 -9 -11 -7 -5 8 6 16 4 18 -6 8 -11 -10
-17 -10 -28 -1 -11 10 -17 9 -27 -5 -6 -9 -15 -14 -18 -11 -3 3 -23 7 -45 8
-32 2 -39 -1 -34 -12 4 -11 2 -13 -9 -6 -21 13 -42 14 -55 3 -8 -7 -14 -6 -19
1 -3 5 -11 10 -16 10 -6 0 -8 -4 -5 -8 2 -4 -6 -8 -19 -8 -13 0 -22 3 -20 6 2
4 -9 7 -25 7 -16 0 -27 -4 -24 -8 2 -4 0 -11 -6 -14 -6 -4 -9 -2 -8 3 2 6 -1
10 -7 10 -5 0 -8 -5 -7 -11 2 -7 0 -9 -4 -5 -4 4 -14 2 -22 -5 -9 -6 -13 -7
-10 -2 4 6 -2 16 -12 23 -17 10 -18 9 -13 -6 6 -15 5 -16 -12 -2 -10 8 -16 10
-12 4 4 -7 0 -15 -9 -18 -9 -3 -12 -2 -9 5 8 12 -33 8 -54 -5 -10 -6 -12 -5
-7 2 4 7 3 12 -3 12 -5 0 -13 -5 -16 -10 -5 -8 -12 -7 -23 2 -14 11 -15 10 -9
-6 6 -15 5 -17 -7 -7 -11 9 -15 8 -20 -4 -7 -18 -26 -16 -43 5 -12 13 -12 13
-8 0 4 -11 -2 -16 -20 -18 -18 -1 -24 2 -19 11 5 9 4 9 -7 0 -7 -7 -21 -13
-32 -13 -11 0 -15 -4 -11 -12 5 -7 3 -8 -6 -3 -8 5 -41 9 -76 10 -52 1 -61 -1
-56 -14 5 -14 4 -14 -13 -1 -13 10 -19 11 -22 4 -3 -8 -21 -10 -48 -8 -32 3
-45 1 -45 -8 0 -9 -3 -10 -8 -2 -4 6 -17 13 -29 16 -16 4 -20 2 -16 -9 5 -13
3 -13 -16 -1 -18 11 -23 11 -31 -2 -9 -13 -10 -13 -10 0 0 13 -1 13 -10 0 -6
-10 -10 -11 -10 -2 0 6 -5 12 -11 12 -6 0 -9 -7 -6 -14 4 -10 1 -13 -9 -9 -7
3 -14 9 -14 15 0 5 -7 3 -15 -5 -8 -9 -23 -14 -32 -12 -10 2 -24 4 -31 4 -7 1
-10 6 -6 13 5 7 3 8 -5 4 -7 -5 -10 -15 -6 -24 4 -12 1 -12 -16 4 -12 10 -19
13 -15 7 4 -7 4 -13 -1 -14 -4 0 -16 -2 -26 -4 -9 -2 -15 1 -11 6 8 13 -10 11
-25 -3 -11 -11 -12 -10 -6 2 8 13 7 13 -8 1 -14 -11 -17 -11 -17 0 0 11 -2 11
-10 -1 -8 -12 -10 -12 -10 -1 0 11 -3 11 -17 0 -15 -12 -16 -12 -8 1 6 12 5
13 -6 3 -7 -7 -17 -13 -22 -13 -4 0 -5 6 -1 13 6 9 5 9 -7 0 -8 -6 -27 -10
-42 -9 -15 2 -38 -2 -51 -9 -16 -8 -28 -9 -37 -3 -11 8 -10 9 3 4 10 -3 20 -2
22 3 7 11 -61 7 -71 -4 -5 -4 -2 -5 6 0 10 6 12 4 7 -4 -6 -9 -11 -9 -21 -1
-10 8 -15 8 -21 -1 -5 -8 -3 -9 6 -4 9 5 11 4 6 -4 -10 -15 -26 -5 -27 17 0
15 -1 15 -8 -1 -8 -22 -21 -24 -32 -5 -7 11 -9 11 -9 -1 0 -9 -8 -11 -26 -7
-18 5 -24 3 -19 -5 6 -8 2 -8 -14 0 -12 7 -21 8 -21 2 0 -6 -11 -6 -29 -1 -16
4 -31 7 -33 5 -2 -1 -16 -5 -31 -9 -19 -4 -26 -3 -22 3 3 7 0 8 -9 5 -9 -3
-16 -11 -16 -17 0 -6 -7 -2 -16 9 -8 10 -13 14 -10 7 4 -6 2 -14 -4 -18 -5 -3
-10 -2 -10 4 0 13 -24 8 -44 -8 -14 -12 -16 -12 -11 1 4 9 0 15 -9 15 -8 0
-12 -5 -10 -11 3 -7 -14 -11 -43 -12 -27 0 -60 -3 -75 -7 -18 -4 -28 -2 -28 6
0 7 -4 6 -9 -3 -6 -8 -7 -18 -4 -24 3 -5 1 -6 -6 -2 -6 4 -9 11 -6 16 3 5 1
11 -4 14 -5 3 -11 -3 -14 -15 -5 -20 -6 -20 -33 -2 -16 10 -25 12 -21 6 6 -10
0 -11 -25 -7 -25 4 -29 3 -18 -5 9 -7 10 -11 3 -11 -6 0 -15 5 -18 10 -4 6
-13 7 -24 1 -9 -5 -23 -6 -31 -1 -15 10 -42 2 -35 -10 3 -5 0 -12 -6 -16 -7
-4 -9 -3 -6 3 4 6 0 14 -9 17 -11 4 -15 2 -11 -8 4 -10 1 -13 -8 -9 -8 3 -12
9 -9 14 3 5 -2 6 -10 3 -9 -3 -13 -10 -10 -15 3 -5 0 -9 -5 -9 -6 0 -11 6 -11
13 0 8 -4 7 -10 -3 -9 -14 -14 -7 -11 13 1 5 -3 6 -9 2 -6 -3 -8 -11 -4 -16 3
-6 0 -10 -7 -8 -32 4 -50 -2 -44 -13 4 -7 -1 -4 -9 6 -9 11 -16 14 -16 8 0 -7
-7 -12 -15 -12 -8 0 -15 5 -15 12 0 6 -6 4 -13 -7 -11 -14 -16 -15 -22 -5 -6
9 -4 11 5 5 9 -5 11 -4 6 3 -4 8 -15 8 -31 2 -18 -7 -25 -6 -25 3 0 8 -4 7
-10 -3 -5 -8 -10 -11 -10 -6 0 5 -6 4 -13 -2 -10 -9 -19 -7 -37 5 -13 9 -20
11 -16 5 4 -7 4 -12 -1 -13 -4 0 -16 -2 -26 -4 -13 -2 -17 1 -13 12 5 13 4 14
-8 4 -8 -7 -21 -9 -27 -5 -7 4 -9 3 -6 -2 3 -6 -3 -15 -14 -22 -14 -9 -18 -9
-17 -1 2 6 -3 14 -11 17 -8 2 -11 0 -7 -6 7 -11 -12 -11 -31 1 -8 5 -13 3 -13
-7 0 -10 -6 -13 -15 -10 -8 4 -12 11 -9 18 3 6 -1 3 -9 -6 -16 -20 -32 -25
-21 -7 5 8 1 8 -13 0 -14 -7 -23 -7 -33 2 -10 9 -14 9 -17 -1 -4 -9 -8 -10
-18 -2 -10 8 -15 8 -20 0 -5 -8 -11 -7 -23 2 -9 7 -13 8 -9 2 4 -7 -2 -11 -18
-11 -15 0 -22 4 -19 11 3 6 -4 0 -16 -14 -12 -14 -19 -19 -15 -12 8 15 0 15
-26 2 -11 -7 -19 -7 -19 -1 0 5 6 12 13 14 6 3 -1 4 -18 1 -44 -5 -59 -9 -72
-17 -6 -4 -15 -3 -18 3 -5 8 -11 7 -21 -1 -12 -10 -18 -8 -29 7 -15 18 -15 18
-8 -1 6 -17 4 -18 -8 -8 -9 7 -20 9 -29 3 -9 -6 -20 -4 -29 3 -8 7 -12 8 -9 2
3 -5 -1 -17 -10 -25 -14 -13 -15 -12 -10 2 7 16 -14 20 -28 5 -4 -4 -13 -2
-21 5 -7 6 -16 8 -20 4 -3 -3 -1 -6 5 -6 7 0 12 -4 12 -8 0 -11 -61 -10 -77 1
-9 5 -11 3 -7 -7 4 -12 -1 -13 -30 -6 -23 5 -34 4 -30 -2 4 -6 -7 -8 -26 -5
-23 4 -30 2 -27 -8 4 -9 -1 -11 -14 -8 -10 3 -16 10 -12 16 3 6 1 7 -5 3 -7
-4 -12 -15 -12 -24 0 -10 -3 -13 -8 -7 -10 14 -74 17 -66 3 4 -6 -3 -5 -16 2
-15 8 -20 8 -16 1 4 -6 2 -11 -3 -11 -6 0 -11 6 -11 13 0 9 -3 8 -9 -2 -7 -11
-9 -11 -14 0 -3 9 -6 7 -7 -6 -1 -19 -1 -19 -11 -2 -10 18 -11 18 -25 0 -8
-10 -14 -13 -13 -8 3 21 -2 25 -15 13 -8 -7 -11 -17 -8 -22 3 -5 0 -6 -7 -2
-6 4 -9 11 -6 16 3 5 0 12 -6 16 -8 5 -9 3 -4 -6 6 -10 4 -12 -8 -7 -10 4 -17
1 -17 -5 0 -7 -7 -3 -16 8 -8 10 -13 15 -11 9 3 -5 -1 -16 -9 -23 -11 -10 -14
-10 -14 0 0 8 -3 9 -8 3 -11 -15 -32 -17 -32 -3 0 9 -3 9 -12 0 -16 -16 -31
-15 -23 1 4 6 0 4 -8 -6 -11 -14 -16 -15 -20 -5 -4 11 -7 10 -15 -1 -7 -10
-11 -10 -17 -1 -6 9 -10 9 -16 -1 -5 -8 -9 -9 -9 -3 0 7 -10 9 -25 6 -15 -2
-22 -9 -18 -16 4 -6 0 -5 -9 2 -26 21 -60 23 -81 4 -15 -12 -21 -14 -24 -4 -3
6 -9 12 -14 12 -6 0 -7 -4 -4 -10 9 -14 -9 -12 -24 3 -10 10 -11 9 -6 -5 8
-20 -2 -23 -25 -8 -9 5 -19 5 -26 -1 -8 -7 -14 -6 -19 1 -3 5 -12 10 -18 10
-7 0 -6 -4 3 -11 11 -7 6 -8 -20 -3 -33 6 -34 6 -20 -12 15 -18 14 -18 -14 0
-22 14 -28 15 -23 4 4 -11 -1 -14 -20 -10 -20 4 -24 2 -18 -9 6 -11 5 -12 -6
-1 -7 6 -19 12 -27 12 -8 0 -10 -5 -6 -12 6 -10 4 -10 -8 0 -12 10 -18 10 -23
1 -6 -8 -10 -7 -16 2 -7 12 -9 12 -9 0 0 -10 -3 -11 -13 -2 -10 8 -17 7 -26
-2 -9 -9 -14 -9 -21 3 -8 12 -10 11 -10 -5 0 -15 -3 -17 -9 -7 -7 11 -9 11
-14 -2 -7 -18 -27 -22 -27 -5 0 5 6 7 13 3 6 -4 9 -3 4 1 -13 15 -46 13 -40
-2 3 -7 0 -13 -5 -13 -6 0 -14 9 -17 21 -7 21 -7 21 -21 1 -13 -20 -36 -23
-50 -9 -4 4 -12 7 -18 7 -6 0 -5 -4 2 -9 10 -6 7 -10 -12 -13 -14 -3 -23 -2
-21 2 3 5 -2 10 -10 14 -8 3 -17 0 -21 -6 -4 -7 -3 -8 4 -4 18 11 14 0 -5 -15
-9 -8 -14 -9 -10 -3 7 13 -17 27 -27 16 -10 -10 -37 -11 -30 -1 3 5 0 9 -5 9
-6 0 -11 -8 -11 -17 0 -11 -3 -14 -8 -8 -4 6 -18 9 -32 7 -14 -2 -35 -4 -47
-5 -13 -1 -23 -4 -23 -7 0 -4 -16 -4 -36 -2 -29 4 -35 2 -28 -9 6 -11 5 -12
-7 -2 -12 10 -18 10 -29 0 -7 -6 -10 -7 -7 -1 7 12 -49 12 -60 -1 -5 -4 -2 -5
4 -1 7 4 13 3 13 -2 0 -6 -7 -13 -16 -16 -8 -3 -13 -2 -10 3 3 5 -5 11 -18 13
-19 4 -23 1 -18 -11 5 -14 3 -14 -10 -3 -13 10 -17 10 -21 0 -4 -10 -6 -10 -6
1 -1 11 -4 11 -18 0 -11 -10 -14 -10 -9 -1 4 6 2 12 -3 12 -6 0 -11 -6 -11
-12 0 -9 -4 -8 -10 2 -5 8 -10 10 -10 4 0 -14 -31 -14 -49 0 -12 9 -13 8 -6
-3 6 -11 4 -13 -8 -8 -11 4 -17 1 -17 -8 0 -8 -5 -15 -11 -15 -6 0 -8 7 -5 17
6 14 4 14 -14 -2 -18 -16 -23 -17 -30 -5 -6 8 -10 11 -10 5 0 -5 -11 -11 -25
-11 -16 -1 -23 2 -18 10 3 6 1 6 -8 -1 -7 -7 -17 -13 -22 -13 -4 0 -5 6 -2 13
4 6 0 4 -8 -5 -16 -21 -32 -24 -21 -5 6 9 5 9 -7 0 -12 -10 -18 -10 -27 -1 -7
7 -12 8 -12 2 0 -6 -18 -9 -40 -8 -22 1 -43 -3 -47 -9 -4 -6 -1 -7 7 -2 9 6
11 4 5 -4 -5 -9 -10 -10 -18 -2 -15 15 -30 14 -21 -1 4 -7 -3 -4 -15 6 -16 15
-20 16 -16 4 4 -9 0 -18 -10 -22 -9 -3 -14 -2 -11 3 3 5 -1 12 -10 15 -8 3
-12 2 -9 -4 3 -5 -11 -12 -32 -15 -21 -4 -45 -9 -53 -12 -28 -11 -59 -10 -53
1 4 6 -1 5 -10 -3 -14 -11 -17 -11 -17 0 0 12 -2 12 -9 1 -7 -11 -9 -10 -15 3
-4 11 -13 14 -28 10 -18 -5 -20 -4 -8 4 8 6 10 11 4 11 -6 0 -24 10 -40 22
-30 24 -58 33 -48 16 5 -7 2 -8 -7 -2 -8 5 -17 9 -21 9 -4 0 -16 8 -27 17 -11
9 -22 14 -25 11 -3 -4 -6 1 -6 10 0 10 -7 17 -16 17 -9 0 -12 -5 -8 -12 4 -7
3 -8 -4 -4 -7 4 -12 15 -12 24 0 14 -2 15 -9 3 -7 -12 -13 -12 -24 -3 -7 7
-18 8 -22 4 -5 -4 -5 -1 -1 6 6 11 11 11 24 0 15 -12 16 -11 3 4 -7 10 -17 16
-21 13 -5 -3 -11 -1 -15 4 -3 6 -12 8 -20 4 -8 -3 -15 0 -15 7 0 8 -9 11 -25
8 -15 -3 -30 1 -37 10 -9 11 -9 14 -1 9 6 -4 14 -3 17 2 3 5 -9 8 -28 7 -19
-1 -32 2 -30 6 3 5 -4 8 -15 8 -12 0 -21 5 -21 10 0 6 -6 9 -12 8 -7 -2 -12 2
-11 8 1 6 -4 11 -12 11 -8 0 -11 -7 -8 -16 4 -10 -2 -8 -16 7 -22 22 -37 30
-27 14 3 -5 -1 -9 -8 -9 -8 0 -11 8 -8 21 4 20 4 20 -10 2 -12 -15 -17 -16
-23 -6 -5 9 -4 11 3 6 7 -4 12 -2 12 5 0 6 -8 9 -20 6 -14 -4 -20 0 -20 11 0
15 -2 15 -10 2 -9 -14 -15 -7 -11 14 1 5 -5 4 -13 -4 -13 -10 -16 -10 -16 0 0
9 -3 10 -13 1 -11 -8 -18 -7 -31 7 -9 10 -14 21 -12 23 3 2 -10 4 -29 3 -24
-1 -32 2 -28 11 3 10 -2 12 -16 8 -13 -3 -21 -1 -21 7 0 8 -8 10 -21 7 -14 -4
-19 -2 -16 7 3 7 -1 13 -9 13 -8 0 -14 -4 -14 -9 0 -5 -7 -2 -16 6 -19 20 -59
42 -51 28 4 -5 -13 -8 -40 -7 -40 2 -44 1 -29 -10 17 -13 17 -13 -1 -18 -16
-4 -16 -5 0 -6 9 0 17 -6 17 -12 0 -5 -6 -7 -12 -3 -9 6 -9 3 0 -9 8 -9 11
-21 7 -27 -3 -5 1 -10 9 -10 9 0 16 -9 16 -20 0 -11 5 -20 11 -20 8 0 7 -5 -1
-15 -11 -13 -10 -14 3 -10 14 6 52 -34 71 -75 4 -8 -1 -4 -11 9 -43 59 -51 61
-16 5 21 -34 40 -60 42 -58 4 4 31 -22 31 -31 0 -3 -5 -3 -11 1 -8 4 -8 0 0
-15 7 -11 14 -21 17 -21 3 0 2 6 -2 13 -5 8 -2 7 10 -2 12 -10 14 -16 5 -22
-8 -4 -6 -9 7 -13 26 -8 47 -43 32 -52 -6 -4 -8 -3 -5 3 4 6 -1 17 -11 24 -15
12 -15 12 -5 -1 6 -8 13 -19 15 -25 1 -5 11 -9 21 -9 14 1 15 -2 6 -12 -9 -11
-9 -14 0 -14 7 0 9 -4 6 -10 -3 -5 1 -10 10 -10 9 0 13 -4 10 -10 -3 -5 1 -10
10 -10 9 0 14 -4 10 -9 -3 -6 4 -19 16 -30 l21 -19 -26 2 c-15 2 -23 -1 -19
-7 4 -6 0 -8 -9 -4 -9 3 -21 0 -27 -6 -8 -8 -11 -7 -11 3 0 13 -2 13 -9 1 -5
-8 -17 -16 -25 -17 -9 -1 -14 1 -11 5 2 4 -2 8 -10 8 -8 0 -12 -4 -9 -8 2 -4
0 -10 -6 -14 -5 -3 -10 0 -10 7 0 9 -3 9 -10 -2 -9 -13 -10 -13 -10 0 0 13 -2
13 -9 1 -5 -8 -18 -12 -31 -8 -12 3 -19 3 -16 0 10 -10 -31 -33 -48 -27 -10 4
-16 1 -16 -7 0 -12 -2 -12 -9 -1 -7 11 -9 10 -15 -3 -3 -9 -10 -14 -16 -10 -5
3 -18 1 -28 -4 -13 -7 -22 -7 -30 1 -9 9 -15 9 -24 -1 -11 -10 -9 -11 6 -5 14
5 17 3 14 -7 -3 -8 -10 -14 -15 -14 -6 0 -15 -3 -19 -7 -4 -5 -12 -8 -18 -8
-6 0 -4 5 4 10 9 6 10 10 3 10 -15 0 -43 -28 -43 -43 0 -8 -4 -7 -9 2 -8 12
-13 12 -35 -3 -14 -9 -26 -21 -26 -27 0 -6 -4 -8 -9 -4 -6 3 -15 -4 -21 -15
-6 -11 -15 -20 -21 -20 -18 0 -70 -58 -72 -80 -1 -11 -7 -20 -14 -20 -6 0 -15
-5 -19 -12 -4 -7 -3 -8 4 -4 16 10 15 -7 -1 -23 -6 -8 -7 -11 -2 -8 7 3 11 -9
10 -33 0 -25 -4 -35 -10 -30 -7 6 -11 2 -11 -9 0 -10 5 -17 11 -14 7 2 12 -3
12 -12 0 -8 -5 -15 -10 -15 -5 0 -2 -12 8 -26 9 -15 12 -23 6 -20 -7 5 -10 -1
-7 -16 3 -13 5 -27 5 -31 1 -5 7 -5 14 -1 8 5 8 2 -2 -9 -7 -9 -9 -17 -3 -17
19 0 21 -29 4 -47 -15 -15 -15 -16 0 -11 20 8 31 -1 18 -17 -6 -7 -1 -20 15
-40 26 -30 31 -40 15 -30 -5 3 -10 1 -10 -4 0 -6 7 -11 16 -11 11 0 15 -6 11
-20 -3 -13 2 -25 15 -34 11 -8 17 -19 13 -25 -3 -6 -1 -11 6 -11 7 0 9 -10 7
-25 -5 -22 -3 -23 10 -13 13 11 15 10 9 -4 -3 -10 -2 -18 3 -18 5 0 14 -10 21
-21 9 -17 8 -20 -2 -14 -9 6 -11 3 -6 -9 4 -10 7 -20 7 -22 0 -3 5 -2 12 2 8
5 9 2 5 -9 -4 -10 -2 -17 4 -17 6 0 8 -7 5 -16 -3 -8 -2 -12 4 -9 6 3 10 -1
10 -9 0 -9 4 -16 10 -16 5 0 7 -6 4 -14 -3 -7 2 -20 10 -29 9 -9 16 -23 16
-31 0 -9 5 -16 10 -16 6 0 10 -9 10 -20 0 -11 5 -20 10 -20 6 0 10 -7 10 -16
0 -9 5 -12 13 -8 8 6 8 3 -1 -9 -17 -20 -7 -38 15 -30 10 4 14 2 9 -5 -3 -6 2
-16 11 -22 16 -10 16 -11 1 -6 -12 3 -15 1 -11 -10 3 -8 11 -13 18 -10 8 3 11
-2 8 -15 -3 -10 0 -19 6 -19 6 0 8 -7 4 -17 -5 -12 -2 -15 10 -10 9 3 16 3 16
-1 -1 -4 -1 -20 0 -37 1 -23 3 -27 11 -15 8 12 10 10 10 -8 0 -16 4 -21 13
-16 7 5 6 0 -3 -11 -8 -10 -10 -16 -4 -12 7 4 14 -3 18 -18 4 -14 11 -25 16
-25 6 0 10 -5 10 -11 0 -5 -6 -7 -12 -4 -7 4 -3 -3 10 -14 14 -12 20 -25 16
-32 -4 -7 -3 -9 3 -6 6 4 13 -6 16 -23 5 -23 10 -28 24 -23 16 6 17 5 3 -12
-9 -11 -10 -16 -2 -11 7 4 12 1 12 -8 0 -9 8 -16 17 -16 15 0 14 -2 -3 -15
-16 -13 -16 -14 -1 -9 13 5 16 2 10 -12 -4 -12 -3 -15 5 -10 11 7 17 -13 13
-38 -1 -5 6 -6 15 -2 12 4 15 2 10 -9 -3 -8 -1 -15 4 -15 5 0 10 -10 12 -22 2
-17 9 -22 23 -20 11 2 16 -1 10 -5 -10 -7 -11 -21 -5 -40 1 -5 2 -12 1 -16 -1
-5 2 -7 6 -4 12 6 40 -28 37 -46 -1 -9 3 -14 11 -11 10 4 23 -17 29 -48 0 -4
13 -19 29 -34 16 -14 24 -30 20 -37 -5 -8 -2 -8 9 1 13 10 15 9 10 -14 -3 -17
-1 -25 6 -21 5 4 13 0 16 -9 3 -8 10 -13 15 -10 5 3 7 -3 4 -14 -4 -14 0 -20
10 -20 9 0 19 -5 23 -12 4 -7 3 -8 -4 -4 -7 4 -12 1 -12 -8 0 -9 7 -13 20 -11
17 3 19 1 9 -17 -8 -15 -8 -19 0 -14 6 4 11 2 11 -4 0 -6 5 -8 12 -4 8 5 9 2
5 -9 -4 -11 -1 -17 8 -17 9 0 12 -6 8 -17 -5 -11 -3 -14 6 -8 10 6 11 3 2 -13
-10 -18 -8 -20 14 -17 20 2 23 0 14 -11 -9 -11 -8 -14 1 -14 7 0 10 -6 7 -14
-6 -14 27 -48 37 -39 3 4 6 1 6 -5 0 -5 -6 -13 -12 -15 -7 -3 -2 -6 12 -6 20
-1 22 -3 10 -11 -13 -9 -13 -10 0 -11 8 -1 18 -1 22 0 12 2 9 -14 -4 -27 -9
-9 -7 -12 9 -12 12 0 25 -5 29 -12 5 -8 2 -9 -9 -5 -26 10 -20 -1 11 -18 15
-9 19 -14 10 -11 -10 3 -18 1 -18 -4 0 -6 9 -10 19 -10 18 0 34 -21 36 -46 1
-20 27 -44 39 -37 6 4 5 -1 -3 -10 -12 -15 -12 -17 4 -11 15 6 16 4 5 -17 -7
-13 -9 -21 -5 -17 4 4 16 3 27 -3 15 -8 17 -13 8 -24 -9 -11 -6 -18 19 -33 21
-12 27 -22 20 -29 -7 -7 -4 -14 8 -24 17 -13 17 -13 3 6 -14 19 -14 19 3 6 12
-10 14 -17 7 -26 -8 -9 -6 -14 5 -19 9 -3 13 -2 10 4 -11 17 0 11 19 -12 15
-18 16 -20 2 -15 -9 4 -16 2 -16 -3 0 -6 9 -10 19 -10 15 0 18 -5 13 -22 -4
-17 -2 -20 11 -15 9 3 19 1 23 -5 4 -7 3 -8 -4 -4 -19 11 -14 -12 6 -32 10
-10 16 -24 14 -30 -2 -8 3 -10 15 -5 16 6 16 5 4 -11 -8 -9 -10 -16 -5 -14 5
1 21 -10 36 -25 30 -30 38 -48 13 -27 -8 7 -15 8 -15 3 0 -5 15 -17 32 -27 18
-9 24 -14 14 -11 -16 5 -17 3 -7 -9 7 -8 10 -20 6 -25 -3 -7 0 -8 9 -5 9 3 13
11 9 18 -3 6 -2 7 2 3 11 -10 16 -39 6 -32 -4 2 -8 -2 -8 -10 0 -8 8 -12 20
-10 13 3 17 0 14 -10 -3 -7 2 -19 11 -27 13 -11 14 -11 7 1 -5 9 -4 12 2 8 6
-4 9 -18 8 -32 -3 -22 -1 -24 18 -13 19 10 20 9 9 -4 -10 -13 -7 -20 22 -42
24 -18 33 -32 29 -43 -4 -11 -3 -14 5 -9 8 4 12 0 12 -11 0 -10 9 -25 20 -33
11 -8 20 -20 20 -28 0 -8 5 -10 12 -6 8 5 7 0 -2 -11 -14 -17 -13 -18 3 -12
11 4 16 3 12 -3 -3 -6 0 -10 7 -10 9 0 9 -3 -2 -10 -12 -8 -10 -10 10 -10 20
0 22 -2 10 -10 -13 -8 -13 -10 2 -10 9 0 20 -9 23 -20 4 -12 16 -30 28 -42 12
-11 16 -18 10 -14 -9 5 -11 2 -7 -9 5 -13 9 -13 22 -3 14 12 14 10 3 -11 -7
-13 -9 -21 -4 -18 4 2 17 -4 28 -15 20 -19 20 -19 0 -13 -16 4 -15 3 3 -6 12
-7 22 -20 22 -31 0 -10 7 -18 18 -18 14 0 15 -2 2 -10 -13 -9 -13 -10 0 -11 8
-1 20 0 25 1 6 1 7 -2 3 -6 -4 -4 0 -13 10 -21 9 -8 11 -12 5 -8 -9 4 -11 1
-7 -9 3 -9 10 -13 15 -10 5 3 9 -2 9 -10 0 -9 5 -16 11 -16 5 0 7 -5 3 -12 -4
-6 -3 -8 3 -5 6 4 19 -1 30 -11 10 -9 13 -13 6 -8 -10 6 -12 4 -7 -8 3 -9 12
-16 20 -16 7 0 20 -10 28 -22 14 -20 14 -24 -2 -42 -9 -11 -12 -17 -6 -13 6 4
10 -3 9 -15 -1 -12 -7 -24 -14 -26 -9 -3 -9 -7 -1 -17 8 -10 8 -15 -1 -21 -8
-4 -9 -3 -5 4 4 7 2 12 -3 12 -14 0 -14 -17 -1 -25 8 -5 7 -12 -2 -23 -11 -13
-11 -14 1 -7 11 6 13 4 8 -7 -3 -9 0 -24 8 -34 9 -13 10 -24 4 -36 -6 -10 -5
-19 1 -23 6 -4 8 -11 4 -16 -3 -5 0 -8 8 -7 7 2 12 -2 11 -9 -2 -7 7 -17 18
-23 12 -7 18 -18 15 -26 -3 -8 -2 -12 4 -9 11 7 50 -16 50 -30 0 -17 49 -44
88 -47 6 -1 12 -4 12 -8 0 -4 12 -12 26 -18 14 -7 23 -9 20 -4 -2 4 4 8 15 8
12 0 15 -4 9 -10 -6 -6 -10 -15 -10 -20 0 -6 5 -4 10 4 6 9 13 11 18 5 4 -5
16 -11 26 -13 11 -2 26 -12 35 -23 9 -11 26 -21 38 -22 12 0 19 -5 16 -11 -4
-5 3 -7 15 -4 12 4 20 2 17 -2 -3 -5 0 -12 6 -15 5 -4 8 -14 5 -22 -3 -8 -1
-11 5 -8 12 8 41 -14 34 -25 -3 -4 4 -10 15 -13 11 -3 20 -13 20 -22 0 -10 -5
-13 -12 -9 -7 4 -8 3 -4 -4 4 -6 12 -9 19 -6 7 2 13 -6 13 -21 1 -14 -3 -25
-10 -25 -6 0 -5 -4 3 -9 18 -11 6 -45 -11 -35 -9 6 -9 3 0 -9 12 -14 11 -16
-7 -12 -15 3 -18 0 -14 -12 4 -11 2 -14 -5 -9 -7 4 -12 2 -12 -6 0 -9 -3 -9
-10 2 -7 11 -10 11 -10 2 0 -10 -5 -10 -20 -2 -15 8 -20 8 -20 -1 0 -9 -3 -9
-14 0 -11 9 -15 9 -19 -1 -4 -10 -6 -10 -6 1 -1 10 -4 11 -15 2 -12 -10 -17
-8 -26 9 -7 13 -18 19 -26 16 -8 -3 -14 0 -14 7 0 8 -4 6 -10 -3 -6 -10 -10
-11 -10 -2 0 6 -3 11 -7 10 -14 -4 -53 26 -53 40 0 9 -7 11 -22 7 -13 -3 -18
-3 -13 2 6 4 11 14 13 22 3 12 1 12 -14 0 -12 -9 -15 -9 -10 -1 4 6 2 12 -3
12 -6 0 -11 9 -11 21 0 11 -4 17 -10 14 -5 -3 -10 1 -10 9 0 9 -5 16 -11 16
-6 0 -9 9 -6 19 3 13 0 18 -8 15 -8 -4 -11 3 -10 20 2 15 -1 24 -5 21 -5 -3
-11 -1 -15 5 -3 5 -1 10 6 10 7 0 10 3 7 6 -4 3 -15 1 -26 -5 -18 -9 -19 -8
-15 12 4 18 3 19 -6 7 -9 -12 -11 -11 -12 10 -1 19 -3 20 -6 7 -5 -18 -6 -18
-19 1 -9 14 -21 18 -35 15 -17 -5 -20 -3 -14 7 6 10 4 11 -6 4 -14 -9 -24 -10
-75 -13 -17 -1 -24 -6 -21 -14 3 -8 -3 -14 -14 -14 -12 -1 -17 3 -13 10 5 8 2
7 -7 -1 -12 -11 -12 -14 1 -22 11 -7 11 -10 2 -10 -7 0 -10 -4 -7 -10 3 -5 0
-7 -8 -4 -8 3 -20 -3 -28 -12 -8 -10 -9 -15 -3 -11 6 3 11 0 11 -7 0 -8 -7
-12 -15 -8 -10 3 -13 1 -8 -6 4 -7 2 -12 -5 -12 -7 0 -9 -8 -6 -21 4 -16 2
-19 -10 -15 -13 5 -14 4 -3 -9 8 -10 9 -15 1 -15 -6 0 -11 -5 -11 -11 0 -5 5
-7 11 -4 7 5 7 1 0 -14 -6 -12 -16 -30 -22 -42 -7 -15 -7 -19 0 -14 15 9 14
-8 -1 -24 -10 -11 -10 -13 0 -7 8 5 12 -2 13 -21 1 -15 1 -32 0 -36 -1 -5 3
-6 9 -2 5 3 10 1 10 -5 0 -6 4 -9 8 -6 5 3 9 -1 9 -9 0 -8 -4 -12 -9 -9 -4 3
-8 0 -8 -5 0 -6 7 -11 16 -11 10 0 14 -6 11 -14 -4 -10 0 -12 16 -8 20 5 21 4
7 -13 -9 -11 -10 -16 -2 -11 7 4 12 2 12 -4 0 -6 5 -8 11 -4 6 3 25 -9 42 -27
17 -19 28 -27 25 -18 -4 10 -1 16 8 16 8 0 12 -3 9 -5 -3 -3 0 -11 6 -18 8
-10 16 -11 31 -3 15 8 19 8 14 0 -4 -7 1 -11 13 -11 10 0 21 -5 23 -11 5 -14
58 -19 58 -5 0 6 5 3 11 -7 6 -9 14 -15 19 -12 5 3 11 1 15 -4 3 -6 13 -7 22
-4 12 5 14 3 8 -7 -6 -10 -4 -12 8 -7 11 4 17 1 17 -9 0 -8 5 -12 10 -9 6 3
10 0 10 -9 0 -8 4 -16 9 -18 13 -4 21 -67 10 -74 -5 -3 -16 -20 -24 -37 -12
-25 -14 -27 -9 -7 5 25 5 25 -8 3 -7 -12 -16 -22 -20 -23 -35 -7 -48 -14 -48
-24 0 -6 -4 -5 -9 3 -8 12 -12 13 -26 1 -13 -11 -15 -11 -13 0 2 7 -3 15 -11
18 -10 3 -12 0 -8 -11 4 -11 2 -14 -8 -10 -8 3 -13 8 -10 12 2 4 -3 8 -11 8
-8 0 -13 -5 -11 -11 5 -13 -32 -14 -53 -1 -10 6 -12 4 -7 -9 5 -12 3 -15 -6
-9 -23 14 -39 12 -33 -4 5 -13 4 -14 -9 -3 -12 10 -15 9 -15 -6 0 -17 -1 -17
-14 1 -13 18 -14 18 -24 -2 -6 -11 -9 -23 -6 -26 3 -3 -3 -3 -14 -1 -12 4 -22
0 -26 -11 -5 -15 -9 -15 -24 -4 -14 11 -15 11 -4 -1 14 -17 16 -34 2 -25 -6 4
-7 -1 -3 -11 5 -13 3 -15 -8 -9 -12 7 -12 6 -1 -7 10 -13 10 -18 1 -24 -8 -5
-9 -3 -4 6 5 9 4 11 -4 6 -9 -6 -9 -11 1 -24 10 -12 10 -14 1 -8 -7 4 -13 2
-13 -3 0 -6 5 -11 11 -11 8 0 7 -6 -2 -17 -8 -9 -9 -14 -4 -11 7 4 11 -6 11
-27 0 -23 -4 -31 -13 -28 -14 6 -8 -21 10 -44 6 -9 4 -15 -7 -19 -9 -3 -13
-10 -10 -16 9 -14 11 -67 3 -62 -4 2 -10 0 -14 -6 -3 -5 -1 -10 4 -10 6 0 11
-5 11 -11 0 -5 -4 -7 -10 -4 -5 3 -7 0 -4 -9 3 -9 12 -12 22 -8 15 5 15 4 -1
-12 -13 -13 -15 -22 -7 -31 8 -10 7 -14 -2 -18 -10 -4 -10 -6 1 -6 10 -1 11
-4 2 -15 -9 -11 -9 -16 0 -22 8 -4 9 -3 5 4 -4 7 -2 12 3 12 14 0 14 -13 -1
-28 -9 -9 -9 -12 2 -12 13 0 13 -2 0 -10 -12 -8 -12 -10 -1 -10 8 0 11 -3 8
-7 -4 -3 -2 -12 4 -20 9 -10 8 -13 -2 -13 -10 -1 -9 -4 3 -14 10 -7 15 -16 11
-19 -3 -4 2 -7 13 -7 16 0 17 -2 4 -10 -13 -8 -12 -10 3 -10 12 0 16 -4 11
-12 -6 -10 -4 -10 8 0 13 11 16 10 14 -5 -1 -12 5 -17 17 -15 11 2 17 -4 17
-15 0 -15 2 -16 10 -3 6 10 10 11 10 3 0 -7 9 -13 21 -13 11 0 18 -4 15 -8 -2
-4 4 -8 14 -8 10 0 16 4 14 8 -3 4 0 8 5 8 6 0 11 -5 11 -10 0 -6 6 -9 13 -8
6 2 11 -3 9 -10 -1 -8 2 -11 8 -7 5 3 10 14 11 23 0 14 2 13 9 -3 5 -11 9 -14
9 -7 1 6 5 12 11 12 5 0 7 -8 3 -17 -5 -15 -3 -16 8 -5 7 6 21 12 31 12 10 0
18 6 18 13 0 9 3 8 9 -2 7 -10 13 -11 31 -1 20 11 22 10 16 -5 -6 -15 -4 -16
10 -4 19 15 47 21 38 8 -8 -13 10 -11 24 3 10 10 15 10 22 -2 7 -12 12 -12 21
-3 9 9 18 9 32 2 14 -8 18 -8 13 0 -11 18 6 13 20 -6 13 -17 14 -17 8 0 -7 19
15 21 28 2 5 -6 8 -6 8 1 0 7 7 15 16 18 14 5 15 4 4 -9 -9 -11 -9 -15 -1 -15
6 0 14 7 17 15 4 11 11 12 24 5 20 -10 46 10 32 25 -4 5 1 5 12 1 14 -5 17 -3
12 10 -5 14 -4 15 9 4 13 -11 14 -10 9 5 -5 12 -4 16 4 11 6 -3 14 -1 18 5 4
7 3 9 -4 5 -6 -3 -13 -2 -17 4 -3 5 1 10 10 10 11 0 14 6 9 25 -4 17 -2 25 7
25 12 0 12 2 1 9 -8 4 -12 17 -10 27 2 10 -2 18 -7 17 -6 -1 -11 9 -11 22 0
13 3 22 7 19 13 -7 -3 40 -20 60 -15 18 -15 19 1 13 12 -4 15 -2 11 8 -3 8
-10 12 -17 8 -8 -5 -8 -3 0 8 6 8 11 30 10 51 0 20 3 34 7 31 5 -3 8 1 6 8 -4
31 1 50 12 43 7 -4 7 2 -1 17 -7 13 -9 21 -5 17 5 -4 15 -2 23 5 13 10 14 9 8
-2 -6 -9 -5 -12 5 -9 8 3 13 11 11 17 -1 6 2 11 8 11 5 0 10 -8 11 -17 0 -15
2 -15 7 -3 5 10 22 15 50 16 39 1 41 0 25 -13 -10 -8 -12 -12 -6 -8 7 3 13 1
13 -5 0 -6 4 -9 9 -6 14 9 21 -20 8 -33 -6 -6 -7 -11 -2 -11 5 0 0 -7 -11 -15
-10 -8 -14 -15 -9 -14 29 4 34 -2 15 -21 -12 -12 -18 -26 -13 -33 11 -18 12
-36 2 -43 -5 -3 -9 -10 -9 -15 0 -6 6 -7 13 -3 9 6 9 5 0 -7 -6 -8 -11 -30
-10 -49 1 -20 -4 -41 -13 -48 -13 -12 -13 -13 3 -8 22 7 22 -3 0 -21 -15 -12
-16 -14 -2 -10 18 6 21 -23 4 -35 -6 -4 -2 -8 9 -8 13 0 17 -5 13 -19 -3 -15
-1 -18 11 -14 11 5 14 2 9 -10 -7 -19 8 -23 17 -4 3 6 4 3 3 -8 -1 -12 3 -19
12 -17 9 2 11 -3 7 -15 -4 -9 -4 -14 0 -10 4 4 13 2 21 -4 7 -6 13 -8 13 -4 0
4 6 3 12 -2 7 -6 22 -13 32 -17 15 -5 17 -4 8 7 -9 10 -8 14 3 14 7 0 14 -3
13 -6 -2 -21 5 -29 26 -27 13 0 22 4 19 9 -7 12 12 8 26 -6 11 -10 13 -9 8 4
-4 13 1 16 29 13 19 -1 37 2 40 7 3 6 12 5 22 -3 12 -10 14 -10 8 0 -9 16 6
16 23 -1 11 -10 12 -9 6 2 -6 11 -2 13 19 7 16 -4 26 -2 26 4 0 6 -6 8 -12 4
-10 -5 -10 -3 0 7 11 12 14 12 22 -1 8 -13 10 -12 10 3 0 10 5 15 10 12 6 -3
10 -1 10 5 0 6 5 8 10 5 6 -3 10 -1 10 5 0 6 5 8 13 4 7 -5 6 0 -3 11 -14 17
-14 18 10 5 24 -13 24 -12 10 5 -8 10 -10 16 -4 13 5 -4 18 4 28 17 10 14 23
22 29 18 6 -3 7 -1 3 6 -4 6 -13 9 -19 5 -7 -3 -1 4 12 15 18 17 20 21 7 21
-14 0 -15 2 -4 14 7 8 16 12 19 10 3 -2 6 3 6 11 0 8 -5 11 -10 8 -6 -3 -8 7
-5 25 3 19 0 33 -7 36 -7 2 -11 19 -10 40 3 27 -1 36 -12 36 -13 0 -13 3 -3
15 11 13 10 14 -3 10 -8 -4 -18 -1 -23 6 -4 8 -3 10 4 5 7 -4 12 -1 12 8 0 9
-5 16 -11 16 -6 0 -9 6 -6 13 3 8 1 20 -5 28 -8 11 -9 10 -4 -4 3 -11 2 -16
-4 -12 -6 3 -10 16 -10 28 0 12 -9 28 -20 35 -12 7 -17 18 -13 29 4 11 3 14
-5 9 -7 -4 -12 -3 -12 2 0 6 7 12 15 16 9 3 15 0 15 -8 0 -7 11 -18 24 -25 17
-9 22 -19 18 -34 -4 -15 -2 -18 8 -12 9 5 11 4 6 -3 -4 -7 -2 -12 4 -12 6 0 8
-5 4 -11 -4 -8 1 -9 17 -4 20 6 22 5 12 -6 -15 -16 -17 -33 -3 -24 5 3 10 1
10 -5 0 -6 4 -9 9 -6 5 4 7 -4 5 -16 -2 -13 -2 -17 2 -10 3 6 10 12 15 12 6 0
5 -8 -1 -20 -6 -11 -7 -20 -3 -19 22 4 33 -3 33 -20 0 -11 9 -21 22 -24 19 -5
20 -8 7 -23 -12 -16 -12 -17 4 -11 13 5 20 0 26 -16 5 -12 6 -26 4 -30 -3 -5
4 -4 15 2 18 10 20 8 17 -15 -2 -18 2 -24 11 -20 8 3 14 -1 14 -9 0 -8 7 -15
15 -15 9 0 12 -6 8 -16 -5 -13 -2 -15 15 -9 14 4 22 2 22 -5 0 -6 -4 -8 -10
-5 -5 3 -10 -1 -10 -9 0 -9 3 -15 8 -14 4 2 8 -1 10 -7 2 -5 12 -13 24 -18 13
-4 18 -13 14 -23 -3 -8 -2 -12 4 -9 6 3 14 -5 20 -19 5 -14 14 -26 20 -26 6 0
8 -5 4 -12 -5 -8 -2 -9 9 -5 9 3 19 1 23 -5 4 -7 3 -8 -4 -4 -7 4 -12 2 -12
-3 0 -6 4 -11 9 -11 4 0 21 -12 37 -27 17 -15 22 -24 12 -20 -10 3 -18 2 -18
-3 0 -6 10 -10 21 -10 16 0 20 -5 16 -19 -3 -15 -1 -18 11 -14 12 5 14 2 9
-12 -7 -16 -5 -16 10 -4 9 8 14 9 10 3 -4 -7 0 -17 8 -24 8 -7 12 -17 8 -23
-4 -6 0 -8 9 -5 8 4 15 0 16 -8 1 -8 3 -21 4 -29 1 -8 4 -13 6 -10 3 3 11 -4
19 -15 8 -11 20 -20 28 -20 9 0 12 -6 9 -15 -5 -11 -2 -13 10 -9 12 5 15 2 9
-12 -4 -12 -3 -15 5 -10 7 4 12 2 12 -4 0 -6 5 -8 13 -4 7 5 7 2 -2 -10 -12
-15 -12 -17 0 -14 8 2 13 -4 13 -15 -2 -13 1 -15 10 -7 17 13 29 0 14 -17 -8
-11 -7 -12 5 -8 8 4 18 1 23 -6 4 -8 3 -10 -4 -5 -8 5 -10 2 -6 -8 3 -9 12
-16 20 -16 12 0 16 -6 13 -26 0 -3 9 -14 20 -23 11 -10 18 -21 14 -25 -3 -3 2
-6 13 -6 16 0 17 -2 4 -10 -13 -8 -13 -10 2 -10 9 0 20 -9 23 -20 4 -11 11
-17 17 -14 8 5 9 1 4 -11 -5 -14 -4 -16 7 -7 11 9 14 8 14 -6 0 -9 -5 -21 -11
-25 -6 -5 -1 -5 12 -2 21 6 28 -3 23 -29 -1 -5 6 -3 15 5 12 9 15 9 10 1 -4
-6 -2 -12 3 -12 6 0 11 -7 11 -16 0 -8 5 -12 10 -9 6 3 10 1 10 -5 0 -6 5 -8
12 -4 6 4 8 3 5 -4 -9 -14 3 -43 14 -36 5 3 9 -2 9 -10 0 -9 5 -16 11 -16 5 0
7 -6 3 -12 -5 -8 -1 -8 12 2 10 8 16 10 12 6 -4 -5 -2 -16 5 -24 8 -11 8 -14
0 -9 -6 4 -15 2 -19 -4 -4 -8 -3 -9 4 -5 7 4 12 2 12 -3 0 -6 3 -10 8 -9 4 2
9 -1 11 -7 7 -16 29 -35 40 -35 5 0 13 -5 17 -12 5 -7 3 -8 -6 -3 -8 5 -11 3
-8 -6 3 -8 11 -13 17 -11 6 1 11 -3 11 -9 0 -5 4 -8 9 -4 6 3 8 -4 6 -15 -4
-23 5 -26 24 -7 9 7 11 7 8 1 -4 -7 0 -15 9 -18 14 -5 14 -9 3 -23 -12 -15
-12 -16 4 -10 11 4 20 1 23 -8 4 -8 12 -15 19 -15 8 0 17 -9 20 -20 4 -12 11
-17 18 -13 7 4 5 -2 -3 -12 -9 -11 -10 -16 -2 -11 7 4 12 2 12 -4 0 -6 5 -8
10 -5 6 3 10 -3 10 -14 0 -11 5 -23 12 -27 7 -5 9 -2 4 7 -4 8 0 5 8 -6 9 -11
14 -25 12 -32 -3 -7 0 -15 6 -19 7 -4 8 -3 4 4 -4 7 -2 12 3 12 6 0 11 -6 11
-14 0 -8 9 -18 20 -21 11 -4 18 -11 15 -16 -4 -5 1 -9 9 -9 10 0 16 -9 16 -21
0 -16 3 -19 13 -11 10 8 16 5 27 -11 12 -21 12 -21 -6 -7 -12 9 -10 4 5 -13
13 -14 33 -29 43 -33 15 -4 16 -9 8 -19 -9 -11 -7 -12 9 -8 15 4 21 1 21 -12
0 -9 9 -19 20 -22 11 -3 20 -13 20 -22 0 -13 2 -14 9 -2 7 11 10 9 13 -10 2
-16 10 -25 26 -27 18 -3 23 -8 19 -23 -4 -16 -2 -18 7 -9 10 7 17 6 26 -5 11
-13 10 -15 -6 -9 -16 5 -16 4 -4 -5 8 -6 24 -8 35 -6 11 3 14 2 8 -1 -7 -3
-13 -10 -13 -15 0 -6 5 -7 12 -3 8 5 9 2 5 -10 -4 -10 -3 -15 3 -11 6 3 13 -1
16 -9 3 -9 13 -16 21 -16 8 0 11 -5 8 -10 -3 -6 3 -10 14 -10 12 0 21 -5 21
-11 0 -5 -4 -7 -10 -4 -16 10 -11 -1 7 -16 11 -10 14 -10 9 -1 -10 17 2 15 21
-3 8 -8 19 -12 25 -9 6 4 8 2 5 -3 -4 -6 3 -13 14 -16 12 -3 18 -10 15 -15 -3
-6 2 -8 14 -5 15 4 20 0 20 -13 0 -16 2 -17 10 -4 8 12 10 12 10 1 0 -10 3
-11 13 -2 8 6 17 8 21 4 13 -13 35 -11 40 4 4 8 13 13 20 10 10 -4 13 0 11 14
-2 12 4 24 16 32 10 6 19 19 19 27 0 13 2 13 9 1 7 -11 10 -9 13 10 2 14 9 23
17 21 12 -3 12 0 0 14 -12 15 -12 17 0 9 11 -6 13 -4 8 9 -4 10 -3 15 4 11 17
-11 41 15 28 31 -8 10 -6 12 10 9 24 -4 37 10 20 21 -8 5 -9 3 -4 -6 5 -9 4
-11 -4 -6 -14 9 -3 29 13 23 7 -3 11 7 10 29 -1 19 2 31 7 28 5 -3 6 -10 3
-16 -4 -7 -2 -8 5 -4 6 4 9 12 6 17 -4 5 -2 9 4 9 6 0 7 7 4 17 -4 11 -3 14 5
9 7 -4 12 -2 12 4 0 6 4 8 10 5 6 -4 7 1 3 11 -5 14 -3 16 12 11 15 -6 16 -5
5 8 -10 12 -10 15 0 15 7 0 10 6 7 14 -4 10 1 12 16 9 18 -4 19 -3 7 6 -11 8
-12 11 -2 11 7 0 10 5 7 10 -3 6 -1 10 5 10 6 0 8 5 4 12 -5 8 -2 9 10 5 11
-4 15 -3 10 4 -4 6 -3 14 2 18 16 11 35 52 29 62 -4 5 -3 9 2 8 20 -3 27 2 13
11 -13 8 -12 10 4 10 16 0 17 2 5 17 -8 9 -9 14 -3 10 11 -7 29 19 25 36 -1 5
3 6 9 2 5 -3 10 -1 10 5 0 6 5 8 13 4 7 -5 7 -2 -2 10 -12 15 -12 17 0 14 8
-2 13 3 11 9 -1 7 3 13 9 13 5 0 8 4 4 9 -3 6 3 15 14 21 13 6 18 18 16 31 -3
15 0 19 10 15 10 -3 12 0 8 11 -4 9 -2 14 3 10 6 -3 11 4 11 16 1 12 7 23 13
25 5 2 8 8 4 13 -3 5 -1 9 5 9 6 0 8 7 5 15 -4 9 1 18 11 21 9 4 14 13 10 22
-4 12 -3 13 10 2 8 -7 12 -16 9 -21 -3 -5 2 -9 11 -9 10 0 13 5 9 12 -4 7 -3
8 5 4 6 -4 9 -11 6 -16 -8 -13 6 -40 21 -40 8 0 14 -5 14 -11 0 -5 -6 -7 -12
-3 -7 4 0 -5 15 -19 17 -17 25 -32 21 -40 -5 -8 -2 -8 9 2 15 12 17 11 17 -3
0 -11 4 -14 13 -10 9 6 9 4 -1 -8 -12 -14 -10 -16 10 -11 16 3 19 2 10 -5 -11
-7 -11 -10 2 -15 10 -4 13 -13 9 -23 -4 -12 -3 -15 6 -10 8 5 14 1 18 -13 3
-11 9 -18 14 -15 5 3 9 0 9 -6 0 -7 6 -8 19 -1 10 6 20 8 23 6 3 -3 5 2 5 10
0 10 -4 12 -12 5 -9 -8 -14 -6 -19 6 -9 23 -7 31 4 14 6 -10 10 -11 10 -3 0 7
-9 18 -19 25 -16 10 -18 15 -8 27 8 10 8 13 1 8 -7 -4 -15 0 -18 9 -4 9 -2 13
5 8 8 -5 8 -1 0 13 -6 11 -7 24 -3 28 4 5 1 5 -7 0 -11 -6 -13 -3 -8 14 4 18
2 21 -11 17 -10 -4 -7 3 8 15 l25 21 -24 19 c-13 10 -18 19 -11 19 8 0 10 8 7
21 -4 15 -2 17 6 10 9 -7 12 0 13 25 1 22 -3 32 -10 28 -6 -3 0 4 14 16 14 12
18 19 10 15 -8 -4 -6 1 4 9 11 9 16 16 10 16 -5 0 -1 5 9 11 17 10 17 12 3 28
-14 15 -14 18 -1 18 8 0 11 -5 8 -11 -4 -6 1 -5 10 3 13 11 15 17 6 28 -10 11
-8 12 5 7 9 -4 16 -3 15 2 -3 21 2 26 15 15 12 -10 14 -8 9 11 -3 16 -2 19 5
10 5 -8 12 -13 16 -13 23 3 30 0 18 -8 -11 -7 -11 -11 2 -24 9 -8 16 -20 16
-26 0 -5 5 -13 12 -17 7 -5 8 -2 3 7 -5 8 -4 11 1 6 5 -5 9 -14 9 -20 1 -7 6
-11 13 -10 7 2 9 -4 5 -14 -5 -12 -3 -14 7 -8 10 6 12 4 7 -8 -7 -18 13 -19
25 -2 5 6 8 4 8 -4 0 -8 11 -2 27 15 15 16 27 32 25 36 -1 4 5 5 13 2 10 -4
13 0 10 16 -3 18 -2 20 10 10 14 -12 20 -6 15 15 -1 6 2 7 6 2 4 -4 19 3 32
15 14 13 22 18 19 12 -8 -15 17 -26 39 -17 14 5 13 2 -2 -17 -36 -43 -68 -69
-78 -63 -6 3 -5 0 2 -8 17 -19 15 -34 -4 -19 -12 11 -15 11 -12 -1 2 -8 -3
-13 -10 -11 -8 1 -11 -2 -7 -8 3 -6 12 -8 18 -4 7 3 5 -1 -4 -8 -15 -12 -15
-16 -2 -33 12 -15 14 -16 10 -3 -5 13 0 16 28 14 26 -3 32 0 27 12 -4 11 -1
14 11 9 10 -4 20 0 26 11 10 16 10 16 11 0 0 -9 6 -19 13 -21 9 -4 8 -6 -2 -6
-11 -1 -11 -4 -1 -17 11 -12 11 -15 0 -12 -8 2 -14 -2 -15 -9 0 -6 -4 -15 -9
-20 -6 -5 -6 -2 -1 7 7 12 6 13 -7 3 -8 -7 -17 -10 -20 -8 -3 3 -4 -6 -3 -20
3 -22 1 -24 -18 -13 -19 10 -20 9 -9 -4 10 -12 10 -18 1 -24 -15 -9 29 -44 48
-37 7 3 16 -2 19 -11 3 -9 10 -13 15 -10 5 3 9 -3 10 -13 0 -11 3 -13 6 -5 4
10 9 9 20 -5 8 -10 11 -11 7 -3 -7 13 -5 13 9 1 9 -7 14 -17 11 -22 -9 -15 27
-23 38 -8 8 11 8 10 4 -5 -5 -14 -2 -17 9 -12 9 3 13 2 10 -4 -3 -6 1 -10 10
-10 10 0 13 -5 9 -12 -5 -7 0 -9 14 -6 15 4 19 2 15 -8 -5 -13 14 -20 41 -15
5 1 6 -5 2 -14 -3 -9 -2 -13 4 -10 6 3 10 1 10 -6 0 -10 3 -10 12 -1 15 15 28
15 28 1 0 -5 -4 -7 -10 -4 -5 3 -10 0 -10 -7 0 -8 10 -15 22 -15 13 -1 24 -7
26 -13 2 -5 8 -10 13 -10 6 0 7 5 3 12 -4 7 -3 8 4 4 6 -4 9 -13 5 -21 -3 -10
5 -19 26 -28 17 -7 29 -16 26 -19 -3 -3 1 -8 9 -11 20 -8 33 32 15 44 -11 7
-11 9 -1 9 7 0 10 5 7 10 -4 6 -11 8 -16 5 -5 -3 -6 2 -2 11 4 11 3 15 -4 11
-13 -8 -11 32 2 53 6 9 4 11 -5 5 -9 -6 -12 1 -8 28 2 20 1 35 -2 35 -20 -2
-21 4 -4 17 16 13 16 14 2 9 -13 -5 -18 -1 -18 14 0 11 6 23 13 25 7 3 5 6 -6
6 -15 1 -16 4 -6 22 8 15 8 19 0 15 -15 -10 -14 7 2 23 6 8 7 11 1 8 -6 -3
-11 0 -11 8 0 8 5 11 10 8 7 -4 8 1 3 12 -5 14 -4 16 7 7 10 -9 14 -9 15 1 3
38 9 54 22 67 9 8 10 11 4 7 -9 -6 -11 -2 -7 12 3 12 9 19 13 16 4 -3 11 2 14
11 4 10 2 13 -7 9 -6 -4 -1 3 13 15 14 12 18 19 10 15 -13 -6 -13 -5 0 7 8 7
15 23 15 36 0 12 -7 27 -15 32 -13 9 -13 10 0 10 12 0 13 2 1 9 -8 5 -10 14
-5 22 6 10 3 10 -11 -1 -17 -14 -18 -14 -6 9 7 13 9 21 4 18 -5 -3 -15 3 -22
15 -7 11 -9 18 -4 15 5 -3 9 3 9 14 0 10 -4 19 -9 19 -5 0 -7 12 -4 26 3 16 0
28 -9 31 -12 4 -12 8 -2 21 11 13 11 14 -1 7 -11 -6 -13 -3 -9 13 4 14 2 22
-7 22 -7 0 -12 8 -11 18 2 9 -2 20 -8 24 -7 5 -6 8 3 8 12 0 12 3 -1 18 -8 9
-15 32 -16 50 0 51 -1 54 -14 46 -8 -5 -7 0 2 11 8 10 11 16 5 13 -5 -3 -16 0
-23 8 -10 11 -10 14 0 15 7 1 2 4 -12 8 -18 5 -24 13 -22 27 3 15 1 17 -9 6
-15 -14 -33 -16 -24 -2 3 5 -4 11 -17 11 -16 1 -18 3 -6 6 9 2 20 13 23 23 3
11 12 19 18 17 7 -1 11 9 10 27 -2 27 -1 27 12 10 14 -18 14 -18 16 6 0 14 2
34 3 46 2 17 -2 20 -18 16 -20 -4 -20 -4 -3 10 17 13 16 14 -10 17 -15 1 -34
3 -40 4 -9 0 -10 4 -2 14 13 15 23 18 14 3 -3 -5 -2 -10 3 -10 6 0 12 7 16 15
3 9 12 12 22 8 11 -4 15 -2 11 4 -4 7 0 10 10 9 10 -2 22 2 26 8 6 7 7 6 4 -4
-2 -8 -11 -14 -18 -12 -8 2 -10 0 -6 -5 5 -4 16 -8 25 -8 10 0 18 -9 20 -22 2
-13 8 -23 13 -23 6 0 8 -4 5 -9 -4 -5 0 -12 6 -14 7 -3 4 -6 -7 -7 -17 0 -18
-2 -4 -10 12 -7 16 -22 14 -57 -2 -44 0 -48 21 -48 12 0 20 3 17 8 -2 4 1 7 7
7 6 0 8 5 5 10 -3 6 0 10 7 10 9 0 9 3 -2 10 -12 8 -12 10 5 11 l20 0 -20 9
c-11 5 -15 9 -8 9 8 1 9 10 3 30 -10 35 -5 41 32 41 16 0 27 4 24 9 -3 5 4 11
15 14 14 4 18 10 13 18 -5 8 -2 11 8 7 11 -5 14 1 13 23 -1 17 2 32 7 35 4 3
6 10 2 15 -3 5 0 17 8 26 7 9 8 14 3 11 -6 -4 -17 -3 -25 3 -8 5 -10 9 -4 9 6
0 11 7 11 15 0 17 -13 20 -19 5 -1 -5 -8 2 -15 16 -11 23 -10 24 5 12 15 -12
16 -11 3 5 -7 9 -20 17 -27 17 -8 0 -14 5 -14 10 0 6 -5 10 -11 10 -5 0 -7 -5
-3 -12 5 -7 3 -8 -5 -4 -9 6 -9 12 2 24 17 20 18 55 2 48 -9 -3 -10 1 -1 19 7
16 13 20 18 12 5 -8 8 -7 8 3 0 13 1 13 10 0 7 -11 10 -11 10 -2 0 7 4 10 10
7 6 -4 7 1 3 11 -5 13 -2 16 13 12 15 -4 20 0 21 15 1 11 11 28 22 39 24 21
29 37 7 19 -12 -10 -13 -8 -9 8 3 12 9 19 13 16 5 -3 12 0 16 6 4 7 3 9 -4 6
-6 -5 -13 8 -17 33 -9 53 -33 100 -51 100 -8 0 -14 6 -14 14 0 8 -5 18 -12 22
-7 4 -8 3 -4 -4 4 -7 2 -12 -3 -12 -6 0 -11 5 -11 11 0 6 -9 9 -20 6 -11 -3
-23 0 -27 5 -4 7 -1 8 7 3 9 -5 11 -4 6 4 -5 8 -12 9 -19 2 -8 -6 -16 -4 -24
4 -10 11 -10 15 0 18 7 3 3 6 -7 6 -18 1 -18 2 -2 20 10 11 15 25 11 31 -3 6
-3 10 2 9 19 -3 33 2 33 12 0 5 -5 7 -12 3 -7 -4 -8 -3 -4 4 4 7 13 12 20 12
8 0 12 10 10 26 -2 20 1 24 13 20 12 -5 13 -3 5 7 -11 13 -11 48 1 47 4 0 10
0 13 0 4 0 1 -6 -5 -14 -9 -11 -9 -16 0 -22 7 -4 9 -3 6 3 -4 6 2 13 13 16 11
3 18 1 15 -3 -3 -5 3 -11 14 -15 11 -3 21 -16 23 -28 2 -12 9 -22 16 -22 7 0
17 -7 22 -15 7 -11 10 -11 10 -2 0 10 3 10 14 0 8 -8 10 -15 4 -19 -6 -4 4
-13 21 -20 17 -8 31 -17 31 -21 0 -5 7 -8 16 -8 9 0 12 -5 8 -12 -5 -8 0 -9
15 -5 18 4 20 3 10 -9 -8 -10 -8 -14 0 -14 21 0 26 -3 40 -22 11 -16 15 -17
22 -7 7 11 9 10 9 -5 0 -13 5 -16 17 -12 10 4 14 4 11 0 -8 -8 16 -34 31 -34
6 0 11 -5 11 -11 0 -5 5 -7 10 -4 6 4 7 11 4 17 -4 7 -2 8 5 4 6 -4 9 -11 7
-14 -2 -4 7 -12 20 -19 13 -6 22 -7 19 -3 -3 5 5 10 17 12 13 2 22 8 21 14 -1
7 9 9 25 7 16 -3 22 -1 16 4 -9 6 -8 11 1 20 11 10 15 10 18 0 3 -7 6 -3 6 9
1 12 11 26 24 33 12 6 14 9 5 7 -10 -3 -20 0 -24 6 -4 6 -3 8 4 4 6 -3 13 3
17 14 3 11 11 20 17 20 6 0 5 -7 -3 -17 -11 -15 -11 -16 1 -6 19 17 22 44 7
63 -10 13 -10 13 4 2 13 -10 19 -9 30 5 8 10 9 14 2 10 -9 -6 -10 2 -6 27 4
28 2 35 -16 41 -11 3 -21 13 -21 21 0 8 -3 13 -7 13 -19 -3 -33 2 -33 12 0 5
4 7 10 4 6 -3 7 1 3 10 -5 13 -7 14 -14 3 -7 -10 -12 -8 -24 10 -9 12 -26 22
-38 22 -18 0 -19 2 -7 10 13 8 12 10 -4 10 -12 0 -16 5 -12 16 3 8 2 12 -3 9
-5 -3 -12 -1 -16 4 -3 6 -13 7 -22 4 -11 -4 -14 -3 -9 5 4 7 1 12 -8 12 -9 0
-16 8 -16 18 0 13 -2 14 -9 4 -6 -10 -10 -9 -14 7 -3 13 -13 21 -25 21 -12 0
-24 5 -27 10 -4 6 -11 7 -17 4 -7 -4 -8 -2 -4 5 6 9 12 9 24 -1 15 -12 16 -11
3 5 -7 9 -24 17 -36 17 -22 0 -42 24 -27 33 4 2 1 2 -5 1 -7 -2 -16 3 -20 10
-5 7 -16 15 -25 19 -10 3 -18 14 -18 23 0 13 -3 14 -14 5 -12 -10 -17 -8 -25
7 -6 11 -7 23 -3 27 4 4 -4 4 -17 0 -16 -5 -21 -4 -17 4 4 6 1 11 -8 11 -8 0
-17 6 -19 13 -4 9 -8 9 -15 -1 -7 -11 -10 -11 -15 3 -4 9 -3 13 3 10 6 -3 10
-1 10 4 0 6 -4 11 -10 11 -5 0 -9 3 -9 8 4 21 -2 32 -13 26 -8 -5 -9 -2 -5 9
6 16 -3 22 -26 18 -5 -1 -6 3 -2 9 3 5 1 10 -5 10 -7 0 -10 6 -7 14 8 20 -4
28 -20 14 -7 -6 -16 -8 -20 -4 -3 3 -1 6 6 6 7 0 9 5 6 10 -4 6 -11 8 -16 5
-5 -3 -6 0 -3 8 3 8 0 18 -7 23 -8 4 -10 3 -5 -5 5 -8 1 -8 -16 0 -32 14 -32
42 0 75 15 15 22 24 16 21 -7 -4 -14 -1 -17 7 -3 8 1 13 11 12 12 -1 17 7 17
29 0 19 5 30 14 30 8 0 16 6 19 14 3 9 0 11 -9 5 -17 -10 9 27 28 38 6 5 10
21 9 37 -1 16 3 29 8 28 6 -1 12 11 14 27 3 22 6 26 13 15 7 -11 9 -11 10 4 3
37 5 42 17 39 10 -2 10 2 1 20 -11 21 -11 22 4 10 13 -11 15 -10 12 13 -2 18
2 25 11 21 17 -6 28 10 14 19 -7 5 -5 12 7 22 11 9 12 12 3 8 -10 -4 -10 -2 2
8 14 11 15 16 5 26 -9 10 -8 11 7 5 16 -6 18 -4 13 15 -3 14 0 24 9 28 8 3 14
16 14 30 0 16 4 22 12 17 8 -5 9 -2 5 9 -3 10 -2 17 4 17 6 0 7 5 4 10 -9 14
8 12 25 -2 8 -7 6 -3 -4 10 -13 14 -15 22 -6 22 6 0 10 6 7 14 -3 7 4 21 15
30 11 10 17 24 14 32 -3 8 1 17 9 21 12 4 13 8 4 19 -10 12 -8 13 6 8 13 -5
16 -4 11 4 -4 7 -3 12 2 12 11 0 25 38 22 59 -1 7 3 10 9 6 15 -9 14 8 -1 24
-8 8 -8 11 -2 8 14 -8 33 13 39 44 3 13 9 25 15 27 5 2 10 11 10 21 0 9 6 23
13 30 10 11 9 12 -2 6 -10 -6 -12 -4 -7 4 5 7 15 10 23 6 13 -4 14 -3 3 10
-10 12 -10 15 3 15 10 0 14 7 10 23 -4 18 -3 19 6 7 9 -12 11 -11 11 8 0 16 4
21 13 16 9 -5 9 -4 -1 7 -10 11 -8 17 11 34 13 11 17 16 10 11 -24 -16 -14 10
17 44 32 36 37 46 19 34 -7 -4 -10 -1 -7 7 3 8 11 13 17 11 7 -1 10 2 6 8 -3
5 -1 10 4 10 6 0 11 5 11 11 0 5 -6 7 -12 4 -7 -4 -5 0 5 8 10 9 18 18 18 21
-3 20 0 26 8 21 5 -3 13 0 17 6 4 7 3 9 -3 6 -6 -4 -14 0 -17 9 -4 10 -2 13 6
8 8 -5 9 -2 4 11 -5 14 -4 16 7 7 18 -15 30 -3 16 15 -9 10 -8 13 0 13 7 0 9
4 6 10 -3 6 1 10 9 10 9 0 16 5 16 11 0 5 -6 7 -12 3 -9 -6 -9 -3 0 9 8 9 11
21 8 26 -4 6 2 8 14 6 17 -3 19 -1 10 16 -8 13 -7 19 0 19 6 0 8 5 5 10 -4 6
-1 9 6 8 8 -2 13 6 14 19 0 12 4 25 9 30 5 5 6 3 2 -4 -4 -7 -5 -13 -2 -13 3
0 10 10 17 21 9 17 8 20 -3 14 -7 -3 -6 -1 3 7 9 7 14 19 11 27 -3 10 0 11 9
5 11 -6 12 -5 2 7 -10 12 -9 18 7 31 10 9 22 13 26 10 4 -4 4 1 1 11 -4 10 -1
17 6 18 7 0 3 4 -8 9 -18 7 -18 8 7 15 16 4 25 11 22 16 -3 5 -11 7 -17 3 -7
-3 -1 4 13 16 14 12 19 18 11 14 -10 -5 -12 -3 -7 5 5 7 15 10 23 6 13 -4 14
-3 3 10 -10 12 -10 15 0 15 7 0 10 6 7 14 -3 8 2 20 11 28 13 11 14 11 7 -1
-5 -9 -4 -12 2 -8 5 3 8 19 7 36 -1 18 3 29 10 28 6 -1 11 10 10 24 0 20 4 25
15 21 10 -4 12 -1 6 8 -6 10 -4 12 8 7 11 -4 14 -2 10 8 -3 8 -10 12 -17 9 -6
-3 3 6 19 20 17 14 24 26 18 26 -7 0 -13 5 -13 11 0 5 4 8 8 5 4 -2 14 4 21
16 10 16 10 19 -1 13 -7 -4 -3 2 10 12 18 15 20 21 10 32 -11 12 -10 13 6 7
17 -6 17 -5 5 11 -8 9 -9 14 -2 10 11 -7 26 8 29 28 0 6 4 25 9 43 5 24 10 30
16 20 6 -9 9 -4 9 15 0 40 0 41 17 59 9 10 12 22 7 30 -6 11 -5 11 8 0 14 -11
16 -10 11 9 -5 17 -3 20 7 14 9 -5 11 -4 6 3 -4 7 -2 12 5 12 9 0 9 3 0 14
-10 11 -7 17 10 29 13 10 18 20 13 29 -4 7 -4 10 1 6 15 -14 34 25 23 46 -7
12 -7 16 0 12 12 -7 21 5 27 36 7 34 36 92 54 105 14 11 14 12 1 13 -12 0 -13
2 -1 9 8 5 10 14 5 22 -6 10 -3 10 11 -1 17 -14 18 -14 5 10 -12 22 -12 24 3
12 13 -11 15 -10 10 7 -3 13 -1 21 7 21 6 0 10 6 7 13 -2 6 3 18 12 25 9 8 11
11 4 8 -8 -5 -8 0 0 18 7 13 15 22 19 20 4 -3 5 5 3 16 -3 14 1 20 13 20 15 0
15 2 2 10 -8 5 -10 10 -4 10 7 0 19 12 29 26 9 15 12 24 7 20 -6 -3 -13 -2
-17 4 -3 5 1 10 10 10 11 0 15 5 11 15 -3 8 2 19 12 24 9 5 17 13 17 18 0 4 3
7 6 6 4 -1 6 5 5 15 0 9 4 17 11 17 6 0 15 4 20 9 4 5 3 6 -3 3 -7 -4 -14 0
-18 8 -3 10 1 15 12 15 15 0 15 2 2 10 -13 8 -12 10 4 10 11 0 16 3 13 7 -4 3
-2 12 3 19 6 6 9 18 8 25 -2 8 3 13 10 11 10 -2 10 2 1 20 -12 22 -11 22 7 8
10 -8 16 -10 12 -6 -4 5 -2 16 5 24 10 13 9 15 -3 8 -8 -4 -6 0 4 8 11 9 16
16 10 16 -5 0 -2 5 6 10 11 7 11 10 2 10 -7 0 -10 5 -7 10 4 6 10 8 15 5 4 -3
11 3 14 12 4 9 1 20 -6 25 -11 6 -10 8 0 8 8 0 10 5 6 12 -5 7 -2 9 8 5 12 -4
14 -1 10 15 -4 16 -2 19 8 13 8 -5 11 -4 7 1 -3 6 -2 16 3 24 5 9 5 19 -2 27
-8 11 -7 12 7 7 13 -5 16 -4 11 4 -4 7 -2 12 4 12 6 0 8 5 4 12 -5 8 -2 9 11
4 15 -5 16 -4 6 8 -9 10 -9 16 -1 21 6 4 9 14 6 22 -4 10 -2 13 8 10 9 -4 13
0 12 11 -4 27 9 77 21 77 6 0 15 4 20 9 5 5 3 6 -5 2 -16 -9 -13 25 3 37 6 4
4 11 -5 17 -12 8 -10 10 10 10 18 0 21 3 11 9 -11 7 -11 10 0 17 8 5 21 18 29
29 l15 20 -24 -20 -24 -20 14 23 c8 12 17 22 21 22 4 0 5 12 2 28 -3 17 -1 22
4 14 7 -10 12 -9 23 4 9 12 10 15 2 10 -7 -4 -13 -3 -13 2 0 6 7 12 15 16 8 3
15 11 15 17 0 8 -5 7 -17 -2 -13 -11 -13 -8 2 12 11 15 25 24 30 21 6 -3 4 2
-4 11 -12 15 -12 17 3 11 12 -5 15 -2 10 10 -3 9 -1 16 5 16 6 0 8 7 4 17 -4
11 -3 14 5 9 7 -4 12 -2 12 3 0 6 -4 11 -10 11 -5 0 -10 4 -10 10 0 5 7 7 15
3 10 -3 15 0 13 8 -2 8 3 13 10 11 8 -1 11 2 7 8 -3 6 -12 7 -18 4 -7 -4 -1 5
13 21 14 16 19 25 13 21 -16 -9 -17 10 -2 20 8 4 7 9 -2 15 -11 7 -10 9 4 9
15 0 16 3 6 23 -11 19 -10 20 3 10 17 -15 17 -14 21 59 1 25 7 46 12 45 6 -1
9 4 8 11 -2 6 3 12 10 12 8 0 7 4 -3 10 -12 8 -12 10 -1 10 11 0 11 3 0 17
-12 14 -12 16 0 8 11 -6 13 -4 8 8 -4 10 -2 17 5 17 6 0 5 6 -3 17 -13 15 -12
15 8 5 17 -10 21 -9 19 3 -1 8 -6 18 -11 22 -4 4 -5 2 0 -6 6 -10 4 -12 -4 -7
-9 6 -9 11 0 22 6 8 9 17 5 21 -3 3 1 17 10 30 13 20 13 27 2 41 -11 14 -10
15 6 8 20 -7 20 -7 0 15 -10 12 -14 20 -9 17 6 -3 15 0 22 7 10 10 9 15 -5 20
-16 6 -15 8 2 21 12 8 14 14 7 14 -7 0 -11 6 -7 15 3 8 -2 19 -12 24 -16 10
-16 10 0 11 11 0 15 5 12 15 -4 8 -10 12 -15 9 -5 -3 -6 3 -2 12 4 11 3 15 -4
11 -7 -5 -9 0 -6 13 3 11 0 20 -6 20 -6 0 -11 7 -11 15 0 8 -4 15 -10 15 -5 0
-10 8 -10 18 0 15 -2 15 -11 2 -9 -12 -10 -11 -6 7 4 16 1 20 -11 16 -11 -5
-14 -2 -9 11 4 10 3 15 -3 11 -6 -3 -13 1 -16 9 -3 9 -10 14 -14 11 -7 -5 -24
23 -22 36 0 3 -6 6 -14 6 -11 0 -11 -4 3 -20 18 -20 18 -20 -9 -2 -15 9 -26
21 -23 25 3 5 -4 11 -15 15 -12 4 -17 11 -13 18 4 7 -1 6 -11 -2 -15 -13 -18
-12 -23 7 -3 12 -10 22 -15 22 -5 0 -7 -4 -4 -8 3 -5 -1 -9 -9 -9 -8 0 -12 4
-9 8 2 4 -4 8 -13 8 -40 1 -53 5 -53 15 0 6 -5 4 -10 -4 -8 -12 -10 -12 -10
-1 0 11 -3 11 -17 0 -9 -8 -14 -9 -10 -3 8 15 -85 25 -94 11 -4 -5 -9 -5 -13
1 -6 9 -59 7 -77 -3 -5 -4 -6 1 -3 10 5 11 2 14 -10 9 -9 -3 -16 -11 -16 -18
0 -6 -5 -4 -10 4 -7 12 -10 12 -10 1 0 -9 -6 -11 -17 -6 -10 4 -28 7 -41 6
-16 0 -21 3 -16 12 6 8 3 8 -9 -1 -9 -8 -22 -10 -28 -6 -8 5 -9 3 -4 -7 8 -12
6 -12 -8 0 -12 9 -17 10 -17 2 0 -7 -5 -9 -12 -5 -18 11 -58 11 -58 0 0 -5 -9
-1 -20 9 -17 15 -20 16 -15 3z m-215 -28 c0 -5 -2 -10 -4 -10 -3 0 -8 5 -11
10 -3 6 -1 10 4 10 6 0 11 -4 11 -10z m-7285 -160 c-3 -5 -12 -10 -18 -10 -7
0 -6 4 3 10 19 12 23 12 15 0z m2871 -213 c4 -3 -4 -4 -16 -2 -30 6 -40 16
-12 12 12 -2 24 -6 28 -10z m5504 -91 c0 -3 -4 -8 -10 -11 -5 -3 -10 -1 -10 4
0 6 5 11 10 11 6 0 10 -2 10 -4z m-7510 -57 c0 -6 -4 -7 -10 -4 -5 3 -10 11
-10 16 0 6 5 7 10 4 6 -3 10 -11 10 -16z m-1150 -334 c0 -2 -10 -9 -22 -15
-22 -11 -22 -10 -4 4 21 17 26 19 26 11z m-139 -542 c13 -16 12 -17 -3 -4 -10
7 -18 15 -18 17 0 8 8 3 21 -13z m8199 -607 c0 -2 -8 -10 -17 -17 -16 -13 -17
-12 -4 4 13 16 21 21 21 13z m-205 -447 c-4 -5 -12 -9 -18 -8 -9 0 -8 2 1 6 6
2 9 10 6 15 -4 7 -2 8 5 4 6 -4 9 -12 6 -17z m-7385 -95 c0 -8 -19 -13 -24 -6
-3 5 1 9 9 9 8 0 15 -2 15 -3z m3179 -117 c-2 -1 -13 -9 -24 -17 -19 -14 -19
-14 -6 3 7 9 18 17 24 17 6 0 8 -1 6 -3z m-639 -527 c0 -5 -2 -10 -4 -10 -3 0
-8 5 -11 10 -3 6 -1 10 4 10 6 0 11 -4 11 -10z m5 -91 c-4 -12 -8 -27 -9 -33
-3 -18 -25 -52 -26 -39 0 6 4 14 8 17 5 3 8 19 7 35 -1 17 2 28 7 25 4 -3 8 0
8 5 0 6 3 11 6 11 3 0 2 -10 -1 -21z m-4 -77 c-6 -11 -6 -24 0 -35 6 -9 7 -17
3 -17 -3 0 0 -8 7 -17 11 -13 11 -15 1 -9 -11 6 -12 1 -9 -24 4 -24 3 -29 -7
-21 -7 6 -17 7 -21 3 -5 -4 -4 0 1 8 12 22 14 39 3 46 -5 3 -5 13 1 25 6 10 8
19 5 19 -3 0 -1 9 5 20 6 11 13 20 16 20 2 0 0 -8 -5 -18z m-1986 -50 c-3 -3
-11 0 -18 7 -9 10 -8 11 6 5 10 -3 15 -9 12 -12z m1985 -103 c0 -5 -4 -9 -8
-9 -5 0 -9 7 -9 15 0 8 4 12 9 9 4 -3 8 -9 8 -15z m25 -19 c-3 -5 -11 -10 -16
-10 -6 0 -7 5 -4 10 3 6 11 10 16 10 6 0 7 -4 4 -10z m6 -29 c-7 -5 -11 -13
-8 -18 3 -5 1 -10 -6 -10 -22 0 -14 33 8 35 14 1 16 -1 6 -7z m3 -57 c4 -9 2
-22 -4 -28 -6 -8 -5 -19 5 -33 12 -17 12 -20 0 -20 -8 0 -12 4 -9 8 2 4 -2 14
-11 22 -13 13 -13 16 0 21 15 5 21 27 8 25 -17 -3 -24 2 -18 11 9 15 22 12 29
-6z m24 -159 c-3 -3 -9 2 -12 12 -6 14 -5 15 5 6 7 -7 10 -15 7 -18z m22 -36
c0 -4 -9 -7 -19 -6 -11 0 -18 4 -16 7 6 9 35 8 35 -1z m-1705 -119 c3 -5 1
-10 -4 -10 -6 0 -11 5 -11 10 0 6 2 10 4 10 3 0 8 -4 11 -10z m3725 -398 c-6
-2 -7 -9 -3 -15 3 -7 2 -8 -3 -4 -5 5 -9 12 -9 15 0 4 -4 13 -9 20 -7 11 -4
11 13 0 12 -7 17 -14 11 -16z m-725 -151 c-3 -6 -11 -11 -16 -11 -5 0 -4 6 3
14 14 16 24 13 13 -3z m122 13 c-3 -3 -2 -17 3 -30 7 -16 6 -24 -1 -24 -8 0
-8 -4 -1 -13 7 -8 6 -18 -4 -31 -8 -11 -14 -15 -14 -10 0 6 6 16 13 23 10 11
7 12 -13 7 -14 -3 -19 -3 -12 0 6 3 10 10 6 15 -3 5 -1 9 4 9 5 0 8 10 8 23
-2 24 2 37 11 37 4 0 4 -3 0 -6z m-132 -44 c-11 -5 -27 -9 -35 -9 -13 -1 -13
0 0 9 8 5 24 9 35 9 l20 0 -20 -9z m348 -195 c-3 -9 -8 -14 -10 -11 -3 3 -2 9
2 15 9 16 15 13 8 -4z m-276 -99 c-3 -7 0 -20 6 -27 10 -11 9 -11 -5 0 -15 11
-15 41 -1 41 3 0 3 -6 0 -14z m38 5 c3 -5 2 -12 -3 -15 -5 -3 -9 1 -9 9 0 17
3 19 12 6z m-54 -114 c-6 -8 -7 -18 -3 -22 4 -5 1 -5 -6 -1 -10 6 -10 11 -1
22 6 8 14 14 16 14 3 0 0 -6 -6 -13z m-2441 -43 c0 -8 -19 -13 -24 -6 -3 5 1
9 9 9 8 0 15 -2 15 -3z m2680 -10 c0 -8 -19 -13 -24 -6 -3 5 1 9 9 9 8 0 15
-2 15 -3z m-2723 -619 c0 -8 -4 -12 -9 -9 -5 3 -6 10 -3 15 9 13 12 11 12 -6z
m2778 -65 c3 -5 1 -10 -4 -10 -6 0 -11 5 -11 10 0 6 2 10 4 10 3 0 8 -4 11
-10z m-1785 -365 c0 -2 -6 -5 -13 -8 -8 -3 -14 1 -14 8 0 7 6 11 14 8 7 -3 13
-6 13 -8z m3725 -525 c-3 -5 -12 -10 -18 -10 -7 0 -6 4 3 10 19 12 23 12 15 0z
m-3975 -44 c0 -2 -8 -10 -17 -17 -16 -13 -17 -12 -4 4 13 16 21 21 21 13z
m3085 -775 c3 -5 1 -12 -5 -16 -5 -3 -10 1 -10 9 0 18 6 21 15 7z m430 -31 c4
-6 11 -7 17 -4 7 4 8 2 4 -5 -6 -9 -12 -9 -24 1 -10 7 -19 14 -21 15 -2 2 1 3
7 3 6 0 14 -5 17 -10z"/>
<path d="M3255 5161 c-3 -5 -2 -12 3 -15 5 -3 9 1 9 9 0 17 -3 19 -12 6z"/>
<path d="M6615 8479 c-3 -4 2 -6 10 -5 21 3 28 13 10 13 -9 0 -18 -4 -20 -8z"/>
<path d="M4876 8347 c3 -10 9 -15 12 -12 3 3 0 11 -7 18 -10 9 -11 8 -5 -6z"/>
<path d="M1326 8098 c3 -5 10 -6 15 -3 13 9 11 12 -6 12 -8 0 -12 -4 -9 -9z"/>
<path d="M8870 7859 c0 -5 5 -7 10 -4 6 3 10 8 10 11 0 2 -4 4 -10 4 -5 0 -10
-5 -10 -11z"/>
<path d="M480 7820 c8 -5 20 -10 25 -10 6 0 3 5 -5 10 -8 5 -19 10 -25 10 -5
0 -3 -5 5 -10z"/>
<path d="M45 7481 c-3 -5 -2 -12 3 -15 5 -3 9 1 9 9 0 17 -3 19 -12 6z"/>
<path d="M195 6940 c-3 -6 1 -7 9 -4 18 7 21 14 7 14 -6 0 -13 -4 -16 -10z"/>
<path d="M8186 6272 c-3 -5 1 -9 9 -9 8 0 12 4 9 9 -3 4 -7 8 -9 8 -2 0 -6 -4
-9 -8z"/>
<path d="M8025 5941 c-3 -5 -2 -12 3 -15 5 -3 9 1 9 9 0 17 -3 19 -12 6z"/>
<path d="M1790 4381 c0 -6 4 -13 10 -16 6 -3 7 1 4 9 -7 18 -14 21 -14 7z"/>
<path d="M6950 3740 c0 -5 5 -10 11 -10 5 0 7 5 4 10 -3 6 -8 10 -11 10 -2 0
-4 -4 -4 -10z"/>
<path d="M2150 3656 c0 -2 8 -10 18 -17 15 -13 16 -12 3 4 -13 16 -21 21 -21
13z"/>
<path d="M2346 3258 c3 -5 10 -6 15 -3 13 9 11 12 -6 12 -8 0 -12 -4 -9 -9z"/>
<path d="M7030 2996 c0 -2 7 -7 16 -10 8 -3 12 -2 9 4 -6 10 -25 14 -25 6z"/>
<path d="M2170 2769 c0 -5 5 -7 10 -4 6 3 10 8 10 11 0 2 -4 4 -10 4 -5 0 -10
-5 -10 -11z"/>
<path d="M1805 2521 c-3 -5 -2 -12 3 -15 5 -3 9 1 9 9 0 17 -3 19 -12 6z"/>
<path d="M3207 2489 c7 -7 15 -10 18 -7 3 3 -2 9 -12 12 -14 6 -15 5 -6 -5z"/>
<path d="M6863 1831 c0 -11 5 -18 9 -15 4 3 5 11 1 19 -7 21 -12 19 -10 -4z"/>
<path d="M6891 1754 c0 -11 3 -14 6 -6 3 7 2 16 -1 19 -3 4 -6 -2 -5 -13z"/>
<path d="M6905 980 c-3 -6 1 -7 9 -4 18 7 21 14 7 14 -6 0 -13 -4 -16 -10z"/>
<path d="M5310 379 c0 -5 5 -7 10 -4 6 3 10 8 10 11 0 2 -4 4 -10 4 -5 0 -10
-5 -10 -11z"/>
</g>
</svg>
